<?xml version="1.0" encoding="UTF-8" standalone="no"?><!DOCTYPE svg PUBLIC "-//W3C//DTD SVG 1.1//EN" "http://www.w3.org/Graphics/SVG/1.1/DTD/svg11.dtd"><svg width="100%" height="100%" viewBox="0 0 1130 710" version="1.1" xmlns="http://www.w3.org/2000/svg" xmlns:xlink="http://www.w3.org/1999/xlink" xml:space="preserve" xmlns:serif="http://www.serif.com/" style="fill-rule:evenodd;clip-rule:evenodd;stroke-linejoin:round;stroke-miterlimit:2;"><path d="M877.456,453.321l-0.458,13.884l-3.663,29.695l-12.362,1.928l-3.205,-11.955l0,-15.426c0,0 6.868,-10.798 5.036,-18.126c-1.831,-7.327 14.652,0 14.652,0Z" style="fill:#fbbebe;fill-rule:nonzero;"/><circle cx="875.186" cy="439.369" r="15.144" style="fill:#2f2e41;"/><path d="M837.622,665.95l0.915,18.773l10.073,-2.747l-0.915,-15.11l-10.073,-0.916Z" style="fill:#fbbebe;fill-rule:nonzero;"/><path d="M905.844,664.119l4.808,19.459l8.241,-1.831l-4.349,-19.002l-8.7,1.374Z" style="fill:#fbbebe;fill-rule:nonzero;"/><path d="M824.801,554.23l-1.831,5.952c0,0 -5.495,16.026 0,16.942c5.494,0.915 6.868,-14.652 6.868,-14.652l3.205,-5.495l-8.242,-2.747Z" style="fill:#fbbebe;fill-rule:nonzero;"/><path d="M830.754,537.289l-7.784,17.857l11.787,5.192l6.528,-23.049l-10.531,0Z" style="fill:#575a89;fill-rule:nonzero;"/><path d="M886.156,521.721l14.652,76.007l17.399,66.849l-23.352,4.121l-29.761,-97.985l-15.11,98.9l-20.146,-2.289l5.036,-103.936l10.989,-44.414l40.293,2.747Z" style="fill:#2f2e41;fill-rule:nonzero;"/><path d="M849.984,683.349c0.916,0 5.495,5.037 4.121,10.531c-0.904,3.918 -1.516,7.897 -1.832,11.905c-0.315,4.008 -16.712,5.723 -25.411,0.229c-8.7,-5.495 8.928,-11.676 8.928,-11.676l0.916,-11.904l13.278,-2.748l0,3.663Z" style="fill:#2f2e41;fill-rule:nonzero;"/><path d="M920.267,683.349c0.916,0 5.495,5.037 4.121,10.531c-0.904,3.918 -1.516,7.897 -1.832,11.905c-0.315,4.008 -16.712,5.723 -25.411,0.229c-8.7,-5.495 8.928,-11.676 8.928,-11.676l0.916,-11.904l13.278,-2.748l0,3.663Z" style="fill:#2f2e41;fill-rule:nonzero;"/><circle cx="870.588" cy="442.968" r="12.362" style="fill:#fbbebe;"/><path d="M866.467,489.213l9.158,-31.593l3.205,1.831l17.857,44.871l-8.242,21.978c0,0 -40.292,-2.747 -40.292,-3.205c0,-0.458 4.12,-53.113 4.12,-53.113l7.996,-9.248l0.246,6.501l5.952,21.978Z" style="fill:#575a89;fill-rule:nonzero;"/><path d="M900.35,460.825c0,0 -0.458,-4.121 -3.663,-3.205c-3.205,0.915 -19.583,-0.133 -19.583,-0.133c0,0 -4.684,5.627 1.268,17.074c5.952,11.447 12.591,90.429 12.591,90.429l21.291,-5.265l-10.989,-71.428l-0.915,-27.472Z" style="fill:#2f2e41;fill-rule:nonzero;"/><path d="M863.033,458.306l-21.748,17.628l1.373,30.678l-9.157,62.27l11.904,2.747l16.942,-110.346l0.686,-2.977Z" style="fill:#2f2e41;fill-rule:nonzero;"/><path d="M898.518,504.78l-10.073,3.205c0,0 -7.326,15.11 -2.289,16.941c5.036,1.832 7.089,-11.426 7.089,-11.426l9.394,-3.225l-4.121,-5.495Z" style="fill:#fbbebe;fill-rule:nonzero;"/><path d="M844.032,475.477l-0.472,-1.527l-2.275,1.526c-2.305,3.955 -3.857,8.302 -4.579,12.821c-0.916,6.868 -7.784,51.739 -7.784,51.739l13.736,-1.373l1.374,-63.187Z" style="fill:#2f2e41;fill-rule:nonzero;"/><path d="M912.254,498.828l-15.567,5.494l5.036,10.073l18.315,-7.783l-7.784,-7.784Z" style="fill:#575a89;fill-rule:nonzero;"/><path d="M895.313,459.909c0.458,0 45.329,26.099 40.293,36.63c-3.103,6.333 -8.51,11.248 -15.11,13.736l-10.989,-11.447l5.495,-4.121l-16.942,-10.989l-2.747,-23.809Z" style="fill:#2f2e41;fill-rule:nonzero;"/><path d="M888.111,434.769c-0.232,-2.834 -1.589,-5.739 -4.099,-7.077c1.26,-2.531 2.387,-5.419 1.556,-8.122c-0.685,-2.132 -2.475,-3.733 -4.67,-4.178c-1.204,-0.166 -2.427,-0.15 -3.628,0.047l-5.657,0.642c-1.852,0.072 -3.665,0.56 -5.303,1.427c-1.778,1.125 -2.858,3.088 -2.858,5.191c0,1.795 0.786,3.501 2.149,4.668c-3.958,3.166 -6.604,5.569 -8.405,10.307c3.02,-2.461 6.795,-3.812 10.69,-3.827c5.473,-0.296 10.255,3.874 10.706,9.337c-0.023,1.326 0.093,2.651 0.348,3.953c0.385,1.27 1.544,2.459 2.858,2.274c-0.183,0.025 -1.304,-3.343 -0.515,-4.897l0.013,-0.025c0.173,-0.321 0.46,-0.567 0.804,-0.69c0.264,-0.101 0.545,-0.153 0.829,-0.153c1.063,0 1.996,0.731 2.249,1.763c0.439,1.687 1.142,3.84 1.756,3.268c0.803,-0.748 0.465,-7.345 0.682,-8.368c0.433,-1.813 0.6,-3.679 0.495,-5.54Z" style="fill:#2f2e41;fill-rule:nonzero;"/><path d="M883.95,427.647c0,0 -12.443,0.811 -18.395,-0.271" style="fill:#d0cde1;fill-rule:nonzero;"/><path d="M883.245,425.982c1.26,-2.531 2.386,-5.42 1.555,-8.122c-0.388,-1.218 -1.147,-2.285 -2.171,-3.051c1.581,0.726 2.786,2.084 3.319,3.74c0.831,2.702 -0.295,5.591 -1.555,8.122c-1,-0.15 1.361,0.648 -1.148,-0.689Z" style="fill:#2f2e41;fill-rule:nonzero;"/><path d="M103.246,609.212l18.5,-18.13c-7.3,-1.82 -14.382,-4.425 -21.12,-7.77c-23.079,-11.469 -41.161,-31.025 -50.79,-54.93c-4.975,-12.407 -7.531,-25.651 -7.531,-39.019c0,-57.516 47.329,-104.845 104.845,-104.845c57.516,0 104.845,47.328 104.846,104.844c0,2.24 -0.074,4.467 -0.22,6.68c-0.269,4.292 -0.8,8.563 -1.59,12.79c-0.624,6.506 -1.89,12.934 -3.78,19.19c-8.29,27.8 -27.85,53.51 -48.55,73.49l-51.12,49.34l47.18,0c32.638,0.005 59.494,26.861 59.5,59.5l-192.66,0c-0.002,-36.392 14.027,-71.42 39.15,-97.75c1.09,-1.15 2.203,-2.28 3.34,-3.39Z" style="fill:#67568c;fill-rule:nonzero;"/><path d="M229.596,424.908l-45.07,26.02l-89.61,51.74l-45.08,26.03c-3.229,-8.054 -5.44,-16.479 -6.58,-25.08l52.65,-30.4l62.64,-36.16l52.63,-30.4c6.873,5.296 13.06,11.426 18.42,18.25Z" style="fill:#3f3d56;fill-rule:nonzero;"/><path d="M251.923,495.892c-0.269,4.292 -0.8,8.563 -1.59,12.79c-0.624,6.506 -1.89,12.934 -3.78,19.19l-146.5,84.58c1.09,-1.15 2.203,-2.28 3.34,-3.39l18.5,-18.13c-7.3,-1.82 -14.381,-4.425 -21.12,-7.77l151.15,-87.27Z" style="fill:#3f3d56;fill-rule:nonzero;"/><circle cx="148.771" cy="486.443" r="53.832" style="fill:#fff;"/><path d="M544.85,602.275c-0.011,57.503 -47.331,104.814 -104.834,104.814c-54.854,0 -100.907,-43.054 -104.596,-97.784c-0.16,-2.32 -0.24,-4.67 -0.24,-7.03c0.002,-57.514 47.329,-104.84 104.844,-104.84c47.157,0 88.786,31.816 101.166,77.32l0,0.01c2.374,8.724 3.601,17.719 3.65,26.76l0,0.01c0.01,0.25 0.01,0.49 0.01,0.74Z" style="fill:#6c63ff;fill-rule:nonzero;"/><path d="M498.41,515.205l-57.6,33.25l-47.83,27.62l-57.56,33.23c-0.16,-2.32 -0.24,-4.67 -0.24,-7.03c-0.005,-7.805 0.86,-15.587 2.58,-23.2l133.3,-76.96c9.705,3.01 18.918,7.42 27.35,13.09Z" style="fill:#3f3d56;fill-rule:nonzero;"/><path d="M544.84,601.525l0,0.01l-66.16,38.19l-0.02,0.01l-25.57,14.77l-66.14,38.19c-7.794,-4.577 -14.96,-10.147 -21.32,-16.57l47.31,-27.32l80.91,-46.71l47.34,-27.33c2.374,8.724 3.601,17.719 3.65,26.76Z" style="fill:#3f3d56;fill-rule:nonzero;"/><circle cx="440.015" cy="602.274" r="53.832" style="fill:#fff;"/><path d="M684.04,592.175l2.05,-2.01c-44.311,-11.049 -76.525,-49.862 -79.22,-95.45c-0.13,-2.07 -0.193,-4.16 -0.19,-6.27c0,-0.005 0,-0.01 0,-0.015c0,-57.506 47.32,-104.826 104.825,-104.826c56.938,0 103.998,46.39 104.815,103.321c0.02,0.51 0.02,1.01 0.02,1.52c-0.001,6.532 -0.607,13.05 -1.81,19.47c-0.303,3.27 -0.78,6.521 -1.43,9.74l0,0.01c-6.26,31.4 -27.87,60.7 -50.9,82.93l-51.12,49.34l47.18,0c32.639,0.005 59.495,26.861 59.5,59.5l-192.67,0c0.001,-38.039 15.33,-74.518 42.5,-101.14l16.45,-16.12Z" style="fill:#ff8ba7;fill-rule:nonzero;"/><path d="M789.36,418.235l-177.59,102.53c-2.739,-8.438 -4.386,-17.193 -4.9,-26.05l162.4,-93.76c7.4,4.888 14.15,10.695 20.09,17.28Z" style="fill:#3f3d56;fill-rule:nonzero;"/><path d="M816.34,488.445c-0.001,6.532 -0.607,13.05 -1.81,19.47c-0.303,3.27 -0.78,6.521 -1.43,9.74l0,0.01l-129.06,74.51l2.05,-2.01c-9.965,-2.483 -19.508,-6.425 -28.32,-11.7l158.55,-91.54c0.02,0.51 0.02,1.01 0.02,1.52Z" style="fill:#3f3d56;fill-rule:nonzero;"/><circle cx="711.509" cy="488.443" r="53.832" style="fill:#fff;"/><path d="M1116,604.605c0,0.74 -0.01,1.49 -0.02,2.23c-1.2,56.656 -48.136,102.608 -104.805,102.608c-53.8,0 -99.31,-41.416 -104.365,-94.978c-0.32,-3.25 -0.47,-6.53 -0.47,-9.86c0,-0.017 0,-0.035 0,-0.052c0,-57.497 47.313,-104.81 104.81,-104.81c21.77,0 43.009,6.783 60.75,19.402c27.669,19.63 44.133,51.535 44.1,85.46l0,0Z" style="fill:#fbdd74;fill-rule:nonzero;"/><path d="M1071.9,519.145l-165.09,95.32c-0.32,-3.25 -0.47,-6.53 -0.47,-9.86c-0.008,-6.659 0.625,-13.303 1.89,-19.84l137.25,-79.24c9.412,3.255 18.309,7.842 26.42,13.62Z" style="fill:#3f3d56;fill-rule:nonzero;"/><path d="M1116,604.605c0,0.74 -0.01,1.49 -0.02,2.23l-155.3,89.66c-8.011,-4.406 -15.411,-9.842 -22.01,-16.17l174.34,-100.66c1.995,8.163 2.999,16.537 2.99,24.94Z" style="fill:#3f3d56;fill-rule:nonzero;"/><circle cx="1011.17" cy="604.607" r="53.832" style="fill:#fff;"/><path d="M333.902,574.338l0,8.891c0,0 -63.639,-4.679 -66.914,-9.827c-3.276,-5.147 4.211,-39.306 4.211,-39.306l55.216,10.762l7.487,29.48Z" style="fill:#2f2e41;fill-rule:nonzero;"/><path d="M333.902,574.338l0,8.891c0,0 -63.639,-4.679 -66.914,-9.827c-3.276,-5.147 4.211,-39.306 4.211,-39.306l55.216,10.762l7.487,29.48Z" style="fill-opacity:0.3;fill-rule:nonzero;"/><path d="M278.686,599.139l34.627,48.665l4.68,3.276l-13.571,20.121l-42.582,-49.601c0,0 -12.634,-12.167 -6.551,-19.186c6.083,-7.019 23.397,-3.275 23.397,-3.275Z" style="fill:#2f2e41;fill-rule:nonzero;"/><path d="M315.653,651.08c0,0 7.019,-2.808 11.23,2.807l-6.083,14.038c0,0 -14.974,22.929 -21.057,22.461c-6.083,-0.468 -4.679,-9.358 -2.808,-10.294c1.872,-0.936 6.515,-10.024 6.515,-10.024l12.203,-18.988Z" style="fill:#2f2e41;fill-rule:nonzero;"/><path d="M305.799,685.75l0.027,13.995c-2.683,5.819 -9.293,8.823 -15.442,7.019c-11.23,-2.808 -1.871,-11.698 -1.871,-11.698l2.807,-7.487l14.479,-1.829Z" style="fill:#2f2e41;fill-rule:nonzero;"/><circle cx="309.336" cy="428.108" r="14.038" style="fill:#a0616a;"/><path d="M296.935,427.874l-2.807,18.25l13.102,18.717l9.359,-28.544l-19.654,-8.423Z" style="fill:#a0616a;fill-rule:nonzero;"/><path d="M300.679,451.739l12.611,-5.381l1.895,91.949l-39.307,-2.808l13.57,-87.972l5.292,-5.381l5.939,9.593Z" style="fill:#575a89;fill-rule:nonzero;"/><path d="M301.147,460.162l0.349,-3.513l3.862,0.705l8.675,-13.26l7.235,3.901l19.653,12.635l-8.422,53.812l0,36.967c0,0 10.294,19.186 1.871,31.82l-11.698,-24.333c0,0 -21.993,-37.903 -21.525,-49.601c0.468,-11.698 0,-49.133 0,-49.133Z" style="fill:#2f2e41;fill-rule:nonzero;"/><path d="M292.724,455.014l2.168,-13.858l-4.508,3.096l-21.057,9.827l-10.294,126.342l24.8,8.891c0,0 16.378,-123.067 8.891,-134.298Z" style="fill:#2f2e41;fill-rule:nonzero;"/><path d="M274.007,532.224l45.857,1.872c0,0 4.212,25.268 0.936,45.389c-3.275,20.122 -15.442,109.498 -15.442,109.498l-15.91,0l6.084,-71.127l-1.872,-43.05l-13.57,26.204l-24.801,1.404l18.718,-70.19Z" style="fill:#2f2e41;fill-rule:nonzero;"/><path d="M314.97,403.629c1.091,-0.177 2.297,-0.684 3.222,-0.079c0.476,0.407 0.857,0.914 1.115,1.485c1.071,1.748 2.946,2.802 4.638,3.959c1.693,1.157 3.381,2.672 3.688,4.698c0.264,1.746 -0.563,3.475 -0.588,5.24c-0.031,2.233 1.18,4.653 0.036,6.571c-0.522,0.877 -1.452,1.442 -2.024,2.288c-1.009,1.493 -1.005,3.9 -2.708,4.489c0.074,-2.132 -0.046,-4.267 -0.359,-6.378c-0.051,-0.611 -0.236,-1.203 -0.543,-1.734c-0.762,-1.14 -2.324,-1.312 -3.664,-1.602c-3.473,-0.774 -6.46,-2.984 -8.216,-6.079c0.858,1.015 -0.115,2.732 -1.421,2.978c-1.345,0.107 -2.665,-0.419 -3.568,-1.421c0.459,1.066 0.695,2.215 0.695,3.376c0,3.951 -2.741,7.412 -6.587,8.317c0.128,-1.609 -0.595,-3.174 -1.903,-4.121c-1.353,-0.956 -3.285,-1.24 -4.091,-2.686c-0.465,-1.181 -0.47,-2.494 -0.014,-3.678l1.147,-4.554c0.211,-2.393 1.638,-4.515 3.774,-5.614l3.438,-2.2c1.072,-0.776 2.262,-1.375 3.524,-1.774c1.125,-0.282 2.265,0.067 3.367,-0.236c0.912,-0.249 1.652,-0.903 2.599,-1.111c1.463,-0.323 2.971,0.104 4.443,-0.134Z" style="fill:#2f2e41;fill-rule:nonzero;"/><path d="M267.455,544.858c0,0 7.955,20.589 -0.467,21.525c-8.423,0.936 -7.955,-18.249 -7.955,-18.249l8.422,-3.276Z" style="fill:#a0616a;fill-rule:nonzero;"/><path d="M274.007,454.546l-2.252,-1.6l-2.428,0.665l-12.634,47.261l-3.744,51.473l17.314,-7.019l-0.936,-36.499l4.68,-54.281Z" style="fill:#2f2e41;fill-rule:nonzero;"/><path d="M323.608,552.813l-5.147,5.615l-2.29,-10.084l7.437,4.469Z" style="fill:#a0616a;fill-rule:nonzero;"/><path d="M336.71,461.098l2.374,-1.65l1.837,0.714c0,0 15.91,45.857 12.635,57.088c-3.276,11.23 -28.076,41.178 -28.076,41.178l-11.231,-12.166l21.057,-31.352l-6.551,-7.487l7.955,-46.325Z" style="fill:#2f2e41;fill-rule:nonzero;"/><path d="M294.358,631.579l-2.17,25.371l2.17,-35.786l1.174,1.65l-1.174,8.765Z" style="fill-opacity:0.3;fill-rule:nonzero;"/><path d="M311.39,645.101l-5.591,40.649l7.748,-38.18l-2.157,-2.469Z" style="fill-opacity:0.3;fill-rule:nonzero;"/><circle cx="599" cy="598.525" r="27" style="fill:#ff8e3c;"/><path d="M882.445,119.289c0,0 -36.96,16.694 -44.048,32.104c-7.088,15.409 44.048,-32.104 44.048,-32.104Z" style="fill:#a786df;fill-rule:nonzero;"/><path d="M881.644,102.614c0,0 -34.06,-4.591 -44.393,3.255c-10.332,7.846 44.393,-3.255 44.393,-3.255Z" style="fill:#a786df;fill-rule:nonzero;"/><path d="M891.392,94.747c0,0 -17.133,-53.946 -12.982,-59.286c4.151,-5.34 12.982,59.286 12.982,59.286Z" style="fill:#a786df;fill-rule:nonzero;"/><path d="M897.867,106.61c0,0 9.195,-54.528 18.829,-54.528c9.633,0 -18.829,54.528 -18.829,54.528Z" style="fill:#a786df;fill-rule:nonzero;"/><path d="M903.264,107.154c0,0 31.615,-26.199 96.386,-18.201c64.77,7.997 -96.386,18.201 -96.386,18.201Z" style="fill:#a786df;fill-rule:nonzero;"/><path d="M923.313,110.227c0,0 55.377,-0.97 58.488,6.785c3.111,7.754 -58.488,-6.785 -58.488,-6.785Z" style="fill:#a786df;fill-rule:nonzero;"/><path d="M912.517,118.278c0,-0.001 33.448,20.274 26.913,26.512c-6.536,6.238 -26.913,-26.513 -26.913,-26.513Z" style="fill:#a786df;fill-rule:nonzero;"/><path d="M968.035,142.546c0,0 27.759,15.168 21.591,25.28c-6.169,10.112 -21.591,-25.28 -21.591,-25.28Z" style="fill:#a786df;fill-rule:nonzero;"/><path d="M916.373,130.412c0,0 57.831,82.918 52.433,87.974c-5.397,5.056 -52.433,-87.974 -52.433,-87.974Z" style="fill:#a786df;fill-rule:nonzero;"/><path d="M905.578,124.345c0,0 24.348,53.18 19.379,58.35c-4.969,5.17 -19.379,-58.35 -19.379,-58.35Z" style="fill:#a786df;fill-rule:nonzero;"/><path d="M895.277,122.322c0,0 -21.914,84.797 -8.467,83.923c13.447,-0.874 8.467,-83.923 8.467,-83.923Z" style="fill:#a786df;fill-rule:nonzero;"/><path d="M887.708,126.537c0,0 -36.784,55.174 -33.418,60.985c3.367,5.811 33.418,-60.985 33.418,-60.985Z" style="fill:#a786df;fill-rule:nonzero;"/><path d="M876.668,89.385c0,0 -32.07,-49.678 -61.725,-44.863c-29.656,4.814 61.725,44.863 61.725,44.863Z" style="fill:#a786df;fill-rule:nonzero;"/><path d="M851.602,85.919c0,0 -42.409,-4.045 -39.325,6.067c3.084,10.112 39.325,-6.067 39.325,-6.067Z" style="fill:#a786df;fill-rule:nonzero;"/><path d="M862.397,48.505c0,0 -2.313,-14.157 -6.168,-11.123c-3.856,3.033 6.168,11.123 6.168,11.123Z" style="fill:#a786df;fill-rule:nonzero;"/><path d="M901.465,58.522c0,0 10.581,-58.308 5.785,-58.521c-4.795,-0.214 -5.785,58.521 -5.785,58.521Z" style="fill:#a786df;fill-rule:nonzero;"/><path d="M950.3,66.706c0,0 4.627,-15.168 9.253,-11.123c4.627,4.045 -9.253,11.123 -9.253,11.123Z" style="fill:#a786df;fill-rule:nonzero;"/><path d="M906.349,201.196c0,0 -6.169,59.66 5.397,58.649c11.567,-1.011 -5.397,-58.649 -5.397,-58.649Z" style="fill:#a786df;fill-rule:nonzero;"/><path d="M254.511,277.252c0,0 -34.991,11.371 -41.701,21.868c-6.711,10.496 41.701,-21.868 41.701,-21.868Z" style="fill:#fbdd74;fill-rule:nonzero;"/><path d="M253.752,265.895c0,0 -32.245,-3.128 -42.026,2.217c-9.782,5.344 42.026,-2.217 42.026,-2.217Z" style="fill:#fbdd74;fill-rule:nonzero;"/><path d="M262.98,260.536c0,0 -16.219,-36.745 -12.289,-40.382c3.929,-3.637 12.289,40.382 12.289,40.382Z" style="fill:#fbdd74;fill-rule:nonzero;"/><path d="M269.11,268.617c0,0 8.705,-37.142 17.825,-37.142c9.12,0 -17.825,37.142 -17.825,37.142Z" style="fill:#fbdd74;fill-rule:nonzero;"/><path d="M274.22,268.987c0,0 29.929,-17.845 91.248,-12.398c61.318,5.448 -91.248,12.398 -91.248,12.398Z" style="fill:#fbdd74;fill-rule:nonzero;"/><path d="M293.2,271.08c0,0 52.425,-0.66 55.37,4.622c2.945,5.281 -55.37,-4.622 -55.37,-4.622Z" style="fill:#fbdd74;fill-rule:nonzero;"/><path d="M282.98,276.564c0,0 31.665,13.809 25.478,18.058c-6.188,4.249 -25.478,-18.058 -25.478,-18.058Z" style="fill:#fbdd74;fill-rule:nonzero;"/><path d="M335.539,293.094c0,0 26.279,10.332 20.439,17.219c-5.84,6.888 -20.44,-17.219 -20.44,-17.219Z" style="fill:#fbdd74;fill-rule:nonzero;"/><path d="M286.63,284.829c0,0 54.748,56.479 49.638,59.923c-5.109,3.444 -49.638,-59.923 -49.638,-59.923Z" style="fill:#fbdd74;fill-rule:nonzero;"/><path d="M276.41,280.696c0,0 23.051,36.223 18.346,39.745c-4.704,3.522 -18.346,-39.745 -18.346,-39.745Z" style="fill:#fbdd74;fill-rule:nonzero;"/><path d="M266.658,279.319c0,0 -20.745,57.758 -8.015,57.163c12.73,-0.596 8.015,-57.163 8.015,-57.163Z" style="fill:#fbdd74;fill-rule:nonzero;"/><path d="M259.493,282.19c0,0 -34.824,37.581 -31.637,41.539c3.187,3.958 31.637,-41.539 31.637,-41.539Z" style="fill:#fbdd74;fill-rule:nonzero;"/><path d="M249.041,256.884c0,0 -30.36,-33.838 -58.435,-30.559c-28.075,3.28 58.435,30.559 58.435,30.559Z" style="fill:#fbdd74;fill-rule:nonzero;"/><path d="M225.311,254.523c0,0 -40.149,-2.755 -37.229,4.133c2.92,6.887 37.229,-4.133 37.229,-4.133Z" style="fill:#fbdd74;fill-rule:nonzero;"/><path d="M235.531,229.039c0,0 -2.19,-9.643 -5.84,-7.577c-3.65,2.066 5.84,7.577 5.84,7.577Z" style="fill:#fbdd74;fill-rule:nonzero;"/><path d="M272.516,235.862c0,0 10.017,-39.716 5.477,-39.862c-4.54,-0.145 -5.477,39.862 -5.477,39.862Z" style="fill:#fbdd74;fill-rule:nonzero;"/><path d="M318.749,241.436c0,0 4.38,-10.331 8.76,-7.576c4.38,2.755 -8.76,7.576 -8.76,7.576Z" style="fill:#fbdd74;fill-rule:nonzero;"/><path d="M277.14,333.043c0,0 -5.84,40.637 5.11,39.948c10.95,-0.688 -5.11,-39.948 -5.11,-39.948Z" style="fill:#fbdd74;fill-rule:nonzero;"/><path d="M554.511,257.252c0,0 -34.991,11.371 -41.701,21.868c-6.711,10.496 41.701,-21.868 41.701,-21.868Z" style="fill:#ff6e6c;fill-opacity:0.8;fill-rule:nonzero;"/><path d="M553.752,245.895c0,0 -32.245,-3.128 -42.026,2.217c-9.782,5.344 42.026,-2.217 42.026,-2.217Z" style="fill:#ff6e6c;fill-opacity:0.8;fill-rule:nonzero;"/><path d="M562.98,240.536c0,0 -16.219,-36.745 -12.289,-40.382c3.929,-3.637 12.289,40.382 12.289,40.382Z" style="fill:#ff6e6c;fill-opacity:0.8;fill-rule:nonzero;"/><path d="M569.11,248.617c0,0 8.705,-37.142 17.825,-37.142c9.12,0 -17.825,37.142 -17.825,37.142Z" style="fill:#ff6e6c;fill-opacity:0.8;fill-rule:nonzero;"/><path d="M574.22,248.987c0,0 55.533,-27.682 58.78,-12.987c3.247,14.695 -58.78,12.987 -58.78,12.987Z" style="fill:#ff6e6c;fill-opacity:0.8;fill-rule:nonzero;"/><path d="M593.2,251.08c0,0 52.425,-0.66 55.37,4.622c2.945,5.281 -55.37,-4.622 -55.37,-4.622Z" style="fill:#ff6e6c;fill-opacity:0.8;fill-rule:nonzero;"/><path d="M582.98,256.564c0,0 31.665,13.809 25.478,18.058c-6.188,4.249 -25.478,-18.058 -25.478,-18.058Z" style="fill:#ff6e6c;fill-opacity:0.8;fill-rule:nonzero;"/><path d="M635.539,273.094c0,0 26.279,10.332 20.439,17.219c-5.84,6.888 -20.439,-17.219 -20.439,-17.219Z" style="fill:#ff6e6c;fill-opacity:0.8;fill-rule:nonzero;"/><path d="M586.63,264.829c0,0 54.748,56.479 49.638,59.923c-5.109,3.444 -49.638,-59.923 -49.638,-59.923Z" style="fill:#ff6e6c;fill-opacity:0.8;fill-rule:nonzero;"/><path d="M576.41,260.696c0,0 23.051,36.223 18.346,39.745c-4.704,3.522 -18.346,-39.745 -18.346,-39.745Z" style="fill:#ff6e6c;fill-opacity:0.8;fill-rule:nonzero;"/><path d="M566.658,259.319c0,0 -16.388,35.277 -3.658,34.681c12.73,-0.595 3.658,-34.681 3.658,-34.681Z" style="fill:#ff6e6c;fill-opacity:0.8;fill-rule:nonzero;"/><path d="M559.493,262.19c0,0 -34.824,37.581 -31.637,41.539c3.187,3.958 31.637,-41.539 31.637,-41.539Z" style="fill:#ff6e6c;fill-opacity:0.8;fill-rule:nonzero;"/><path d="M549.041,236.884c0,0 -9.966,-23.163 -38.041,-19.884c-28.075,3.279 38.041,19.884 38.041,19.884Z" style="fill:#ff6e6c;fill-opacity:0.8;fill-rule:nonzero;"/><path d="M525.311,234.523c0,0 -40.149,-2.755 -37.229,4.133c2.92,6.887 37.229,-4.133 37.229,-4.133Z" style="fill:#ff6e6c;fill-opacity:0.8;fill-rule:nonzero;"/><path d="M535.531,209.039c0,0 -2.19,-9.643 -5.84,-7.577c-3.65,2.066 5.84,7.577 5.84,7.577Z" style="fill:#ff6e6c;fill-opacity:0.8;fill-rule:nonzero;"/><path d="M572.516,215.862c0,0 10.017,-39.716 5.477,-39.862c-4.54,-0.145 -5.477,39.862 -5.477,39.862Z" style="fill:#ff6e6c;fill-opacity:0.8;fill-rule:nonzero;"/><path d="M618.749,221.436c0,0 4.38,-10.331 8.76,-7.576c4.38,2.755 -8.76,7.576 -8.76,7.576Z" style="fill:#ff6e6c;fill-opacity:0.8;fill-rule:nonzero;"/><path d="M577.14,313.043c0,0 -5.84,40.637 5.11,39.948c10.95,-0.688 -5.11,-39.948 -5.11,-39.948Z" style="fill:#ff6e6c;fill-opacity:0.8;fill-rule:nonzero;"/></svg>